<?xml version="1.0" encoding="UTF-8" standalone="no"?>
<svg
   xmlns:dc="http://purl.org/dc/elements/1.1/"
   xmlns:cc="http://creativecommons.org/ns#"
   xmlns:rdf="http://www.w3.org/1999/02/22-rdf-syntax-ns#"
   xmlns:svg="http://www.w3.org/2000/svg"
   xmlns="http://www.w3.org/2000/svg"
   xmlns:sodipodi="http://sodipodi.sourceforge.net/DTD/sodipodi-0.dtd"
   xmlns:inkscape="http://www.inkscape.org/namespaces/inkscape"
   version="1.1"
   id="Layer_1"
   x="0px"
   y="0px"
   width="264.99899"
   height="277.69681"
   viewBox="0 0 264.99899 277.69681"
   enable-background="new 0 0 288 243"
   xml:space="preserve"
   inkscape:version="0.91 r13725"
   sodipodi:docname="Butterfly_multitree.svg"><metadata
     id="metadata455"><rdf:RDF><cc:Work
         rdf:about=""><dc:format>image/svg+xml</dc:format><dc:type
           rdf:resource="http://purl.org/dc/dcmitype/StillImage" /><dc:title></dc:title></cc:Work></rdf:RDF></metadata><defs
     id="defs453" /><sodipodi:namedview
     pagecolor="#ffffff"
     bordercolor="#666666"
     borderopacity="1"
     objecttolerance="10"
     gridtolerance="10"
     guidetolerance="10"
     inkscape:pageopacity="0"
     inkscape:pageshadow="2"
     inkscape:window-width="1024"
     inkscape:window-height="721"
     id="namedview451"
     showgrid="false"
     fit-margin-top="0"
     fit-margin-left="0"
     fit-margin-right="0"
     fit-margin-bottom="0"
     inkscape:zoom="1.9423868"
     inkscape:cx="132.39598"
     inkscape:cy="134.54195"
     inkscape:window-x="0"
     inkscape:window-y="24"
     inkscape:window-maximized="1"
     inkscape:current-layer="Layer_1" /><g
     id="g3"
     transform="translate(-11.5,-122.79784)"
     style="fill:#000000;stroke:#000000"><g
       id="g5"
       style="fill:#000000;stroke:#000000"><line
         x1="162"
         y1="162"
         x2="27"
         y2="216"
         id="line7"
         style="fill:#000000;stroke:#000000" /><path
         d="m 21.396,218.241 c 2.246,-2.033 4.849,-5.011 6.169,-7.589 l 0.169,5.054 3.363,3.775 c -2.733,-0.956 -6.673,-1.316 -9.701,-1.24 z"
         id="path9"
         inkscape:connector-curvature="0"
         style="fill:#000000;stroke:#000000" /></g></g><g
     id="g11"
     transform="translate(-11.5,-122.79784)"
     style="fill:#000000;stroke:#000000"><g
       id="g13"
       style="fill:#000000;stroke:#000000"><line
         x1="162"
         y1="162"
         x2="162"
         y2="216"
         id="line15"
         style="fill:#000000;stroke:#000000" /><path
         d="m 162,222.035 c -1.054,-2.84 -2.852,-6.363 -4.755,-8.547 l 4.755,1.72 4.755,-1.72 c -1.903,2.183 -3.702,5.707 -4.755,8.547 z"
         id="path17"
         inkscape:connector-curvature="0"
         style="fill:#000000;stroke:#000000" /></g></g><g
     id="g19"
     transform="translate(-11.5,-122.79784)"
     style="fill:#000000;stroke:#000000"><g
       id="g21"
       style="fill:#000000;stroke:#000000"><line
         x1="18"
         y1="162"
         x2="153"
         y2="216"
         id="line23"
         style="fill:#000000;stroke:#000000" /><path
         d="m 158.604,218.241 c -3.028,-0.076 -6.967,0.284 -9.702,1.241 l 3.363,-3.776 0.169,-5.054 c 1.32,2.578 3.924,5.556 6.17,7.589 z"
         id="path25"
         inkscape:connector-curvature="0"
         style="fill:#000000;stroke:#000000" /></g></g><g
     id="g27"
     transform="translate(-11.5,-122.79784)"
     style="fill:#000000;stroke:#000000"><g
       id="g29"
       style="fill:#000000;stroke:#000000"><line
         x1="18"
         y1="162"
         x2="18"
         y2="216"
         id="line31"
         style="fill:#000000;stroke:#000000" /><path
         d="m 18,222.035 c -1.054,-2.84 -2.852,-6.363 -4.755,-8.547 l 4.755,1.72 4.755,-1.72 c -1.903,2.183 -3.702,5.707 -4.755,8.547 z"
         id="path33"
         inkscape:connector-curvature="0"
         style="fill:#000000;stroke:#000000" /></g></g><g
     id="g35"
     transform="translate(-11.5,-122.79784)"
     style="fill:#000000;stroke:#000000"><g
       id="g37"
       style="fill:#000000;stroke:#000000"><line
         x1="198"
         y1="162"
         x2="63"
         y2="216"
         id="line39"
         style="fill:#000000;stroke:#000000" /><path
         d="m 57.396,218.242 c 2.246,-2.033 4.849,-5.011 6.169,-7.589 l 0.169,5.054 3.363,3.775 c -2.734,-0.956 -6.673,-1.316 -9.701,-1.24 z"
         id="path41"
         inkscape:connector-curvature="0"
         style="fill:#000000;stroke:#000000" /></g></g><g
     id="g43"
     transform="translate(-11.5,-122.79784)"
     style="fill:#000000;stroke:#000000"><g
       id="g45"
       style="fill:#000000;stroke:#000000"><line
         x1="198"
         y1="162"
         x2="198"
         y2="216"
         id="line47"
         style="fill:#000000;stroke:#000000" /><path
         d="m 198,222.036 c -1.054,-2.84 -2.852,-6.363 -4.755,-8.547 l 4.755,1.72 4.755,-1.72 c -1.904,2.183 -3.703,5.707 -4.755,8.547 z"
         id="path49"
         inkscape:connector-curvature="0"
         style="fill:#000000;stroke:#000000" /></g></g><g
     id="g51"
     transform="translate(-11.5,-122.79784)"
     style="fill:#000000;stroke:#000000"><g
       id="g53"
       style="fill:#000000;stroke:#000000"><line
         x1="54"
         y1="162"
         x2="189"
         y2="216"
         id="line55"
         style="fill:#000000;stroke:#000000" /><path
         d="m 194.603,218.242 c -3.028,-0.076 -6.967,0.284 -9.702,1.241 l 3.363,-3.776 0.169,-5.054 c 1.321,2.578 3.924,5.556 6.17,7.589 z"
         id="path57"
         inkscape:connector-curvature="0"
         style="fill:#000000;stroke:#000000" /></g></g><g
     id="g59"
     transform="translate(-11.5,-122.79784)"
     style="fill:#000000;stroke:#000000"><g
       id="g61"
       style="fill:#000000;stroke:#000000"><line
         x1="54"
         y1="162"
         x2="54"
         y2="216"
         id="line63"
         style="fill:#000000;stroke:#000000" /><path
         d="m 54,222.036 c -1.054,-2.84 -2.852,-6.363 -4.755,-8.547 l 4.755,1.72 4.755,-1.72 c -1.904,2.183 -3.702,5.707 -4.755,8.547 z"
         id="path65"
         inkscape:connector-curvature="0"
         style="fill:#000000;stroke:#000000" /></g></g><g
     id="g67"
     transform="translate(-11.5,-122.79784)"
     style="fill:#000000;stroke:#000000"><g
       id="g69"
       style="fill:#000000;stroke:#000000"><line
         x1="234"
         y1="162"
         x2="99"
         y2="216"
         id="line71"
         style="fill:#000000;stroke:#000000" /><path
         d="m 93.396,218.241 c 2.246,-2.033 4.849,-5.011 6.169,-7.589 l 0.169,5.054 3.363,3.775 c -2.734,-0.956 -6.673,-1.316 -9.701,-1.24 z"
         id="path73"
         inkscape:connector-curvature="0"
         style="fill:#000000;stroke:#000000" /></g></g><g
     id="g75"
     transform="translate(-11.5,-122.79784)"
     style="fill:#000000;stroke:#000000"><g
       id="g77"
       style="fill:#000000;stroke:#000000"><line
         x1="234"
         y1="162"
         x2="234"
         y2="216"
         id="line79"
         style="fill:#000000;stroke:#000000" /><path
         d="m 234,222.035 c -1.054,-2.84 -2.852,-6.363 -4.755,-8.547 l 4.755,1.72 4.755,-1.72 c -1.904,2.183 -3.703,5.707 -4.755,8.547 z"
         id="path81"
         inkscape:connector-curvature="0"
         style="fill:#000000;stroke:#000000" /></g></g><g
     id="g83"
     transform="translate(-11.5,-122.79784)"
     style="fill:#000000;stroke:#000000"><g
       id="g85"
       style="fill:#000000;stroke:#000000"><line
         x1="90"
         y1="162"
         x2="225"
         y2="216"
         id="line87"
         style="fill:#000000;stroke:#000000" /><path
         d="m 230.603,218.241 c -3.028,-0.076 -6.967,0.284 -9.701,1.241 l 3.362,-3.776 0.169,-5.054 c 1.32,2.578 3.925,5.556 6.17,7.589 z"
         id="path89"
         inkscape:connector-curvature="0"
         style="fill:#000000;stroke:#000000" /></g></g><g
     id="g91"
     transform="translate(-11.5,-122.79784)"
     style="fill:#000000;stroke:#000000"><g
       id="g93"
       style="fill:#000000;stroke:#000000"><line
         x1="90"
         y1="162"
         x2="90"
         y2="216"
         id="line95"
         style="fill:#000000;stroke:#000000" /><path
         d="m 90,222.035 c -1.054,-2.84 -2.852,-6.363 -4.755,-8.547 l 4.755,1.72 4.755,-1.72 c -1.904,2.183 -3.702,5.707 -4.755,8.547 z"
         id="path97"
         inkscape:connector-curvature="0"
         style="fill:#000000;stroke:#000000" /></g></g><g
     id="g99"
     transform="translate(-11.5,-122.79784)"
     style="fill:#000000;stroke:#000000"><g
       id="g101"
       style="fill:#000000;stroke:#000000"><line
         x1="270"
         y1="162"
         x2="134.99899"
         y2="216"
         id="line103"
         style="fill:#000000;stroke:#000000" /><path
         d="m 129.396,218.242 c 2.246,-2.033 4.849,-5.011 6.169,-7.589 l 0.169,5.054 3.363,3.775 c -2.734,-0.956 -6.674,-1.316 -9.701,-1.24 z"
         id="path105"
         inkscape:connector-curvature="0"
         style="fill:#000000;stroke:#000000" /></g></g><g
     id="g107"
     transform="translate(-11.5,-122.79784)"
     style="fill:#000000;stroke:#000000"><g
       id="g109"
       style="fill:#000000;stroke:#000000"><line
         x1="270"
         y1="162"
         x2="270"
         y2="216"
         id="line111"
         style="fill:#000000;stroke:#000000" /><path
         d="m 270,222.036 c -1.055,-2.84 -2.852,-6.363 -4.756,-8.547 l 4.756,1.72 4.754,-1.72 c -1.903,2.183 -3.702,5.707 -4.754,8.547 z"
         id="path113"
         inkscape:connector-curvature="0"
         style="fill:#000000;stroke:#000000" /></g></g><g
     id="g115"
     transform="translate(-11.5,-122.79784)"
     style="fill:#d35f5f;stroke:#d35f5f"><g
       id="g117"
       style="fill:#d35f5f;stroke:#d35f5f"><line
         x1="125.999"
         y1="162"
         x2="261"
         y2="216"
         id="line119"
         style="fill:#d35f5f;stroke:#d35f5f" /><path
         d="m 266.603,218.242 c -3.028,-0.076 -6.967,0.284 -9.701,1.241 l 3.362,-3.776 0.169,-5.054 c 1.32,2.578 3.925,5.556 6.17,7.589 z"
         id="path121"
         inkscape:connector-curvature="0"
         style="fill:#d35f5f;stroke:#d35f5f" /></g></g><g
     id="g123"
     transform="translate(-11.5,-122.79784)"
     style="fill:#000000;stroke:#000000"><g
       id="g125"
       style="fill:#000000;stroke:#000000"><line
         x1="125.999"
         y1="162"
         x2="125.999"
         y2="216"
         id="line127"
         style="fill:#000000;stroke:#000000" /><path
         d="m 125.999,222.036 c -1.054,-2.84 -2.852,-6.363 -4.755,-8.547 l 4.755,1.72 4.755,-1.72 c -1.903,2.183 -3.702,5.707 -4.755,8.547 z"
         id="path129"
         inkscape:connector-curvature="0"
         style="fill:#000000;stroke:#000000" /></g></g><g
     id="g131"
     transform="translate(-11.5,21.117544)"
     style="fill:#000000;stroke:#000000"><g
       id="g133"
       style="fill:#000000;stroke:#000000"><line
         x1="90"
         y1="90"
         x2="27"
         y2="144"
         id="line135"
         style="fill:#000000;stroke:#000000" /><path
         d="m 22.418,147.927 c 1.47,-2.647 2.976,-6.306 3.395,-9.172 l 1.789,4.729 4.4,2.49 c -2.897,-0.022 -6.743,0.905 -9.584,1.953 z"
         id="path137"
         inkscape:connector-curvature="0"
         style="fill:#000000;stroke:#000000" /></g></g><g
     id="g139"
     transform="translate(-11.5,21.117544)"
     style="fill:#000000;stroke:#000000"><g
       id="g141"
       style="fill:#000000;stroke:#000000"><line
         x1="90"
         y1="90"
         x2="90"
         y2="144"
         id="line143"
         style="fill:#000000;stroke:#000000" /><path
         d="m 90,150.036 c -1.054,-2.84 -2.852,-6.364 -4.755,-8.547 l 4.755,1.72 4.755,-1.72 c -1.903,2.183 -3.702,5.707 -4.755,8.547 z"
         id="path145"
         inkscape:connector-curvature="0"
         style="fill:#000000;stroke:#000000" /></g></g><g
     id="g147"
     transform="translate(-11.5,21.117544)"
     style="fill:#000000;stroke:#000000"><g
       id="g149"
       style="fill:#000000;stroke:#000000"><line
         x1="18"
         y1="90"
         x2="81"
         y2="144"
         id="line151"
         style="fill:#000000;stroke:#000000" /><path
         d="m 85.582,147.927 c -2.842,-1.048 -6.687,-1.976 -9.583,-1.952 l 4.4,-2.491 1.789,-4.729 c 0.418,2.867 1.923,6.525 3.394,9.172 z"
         id="path153"
         inkscape:connector-curvature="0"
         style="fill:#000000;stroke:#000000" /></g></g><g
     id="g155"
     transform="translate(-11.5,21.117544)"
     style="fill:#000000;stroke:#000000"><g
       id="g157"
       style="fill:#000000;stroke:#000000"><line
         x1="18"
         y1="90"
         x2="18"
         y2="144"
         id="line159"
         style="fill:#000000;stroke:#000000" /><path
         d="m 18,150.036 c -1.054,-2.84 -2.852,-6.364 -4.755,-8.547 l 4.755,1.72 4.755,-1.72 c -1.903,2.183 -3.702,5.707 -4.755,8.547 z"
         id="path161"
         inkscape:connector-curvature="0"
         style="fill:#000000;stroke:#000000" /></g></g><g
     id="g163"
     transform="translate(-11.5,21.117544)"
     style="fill:#000000;stroke:#000000"><g
       id="g165"
       style="fill:#000000;stroke:#000000"><line
         x1="126"
         y1="90"
         x2="63"
         y2="144"
         id="line167"
         style="fill:#000000;stroke:#000000" /><path
         d="m 58.417,147.927 c 1.47,-2.647 2.976,-6.306 3.395,-9.172 l 1.789,4.729 4.4,2.49 c -2.897,-0.022 -6.742,0.905 -9.584,1.953 z"
         id="path169"
         inkscape:connector-curvature="0"
         style="fill:#000000;stroke:#000000" /></g></g><g
     id="g171"
     transform="translate(-11.5,21.117544)"
     style="fill:#000000;stroke:#000000"><g
       id="g173"
       style="fill:#000000;stroke:#000000"><line
         x1="126"
         y1="90"
         x2="126"
         y2="144"
         id="line175"
         style="fill:#000000;stroke:#000000" /><path
         d="m 126,150.036 c -1.054,-2.84 -2.852,-6.364 -4.755,-8.547 l 4.755,1.72 4.755,-1.72 c -1.904,2.183 -3.702,5.707 -4.755,8.547 z"
         id="path177"
         inkscape:connector-curvature="0"
         style="fill:#000000;stroke:#000000" /></g></g><g
     id="g179"
     transform="translate(-11.5,21.117544)"
     style="fill:#000000;stroke:#000000"><g
       id="g181"
       style="fill:#000000;stroke:#000000"><line
         x1="54"
         y1="90"
         x2="117"
         y2="144"
         id="line183"
         style="fill:#000000;stroke:#000000" /><path
         d="m 121.582,147.927 c -2.842,-1.048 -6.687,-1.976 -9.583,-1.952 l 4.4,-2.491 1.789,-4.729 c 0.418,2.867 1.923,6.525 3.394,9.172 z"
         id="path185"
         inkscape:connector-curvature="0"
         style="fill:#000000;stroke:#000000" /></g></g><g
     id="g187"
     transform="translate(-11.5,21.117544)"
     style="fill:#000000;stroke:#000000"><g
       id="g189"
       style="fill:#000000;stroke:#000000"><line
         x1="54"
         y1="90"
         x2="54"
         y2="144"
         id="line191"
         style="fill:#000000;stroke:#000000" /><path
         d="m 54,150.036 c -1.054,-2.84 -2.852,-6.364 -4.755,-8.547 l 4.755,1.72 4.755,-1.72 c -1.904,2.183 -3.702,5.707 -4.755,8.547 z"
         id="path193"
         inkscape:connector-curvature="0"
         style="fill:#000000;stroke:#000000" /></g></g><g
     id="g195"
     transform="translate(-11.5,21.117544)"
     style="fill:#000000;stroke:#000000"><g
       id="g197"
       style="fill:#000000;stroke:#000000"><line
         x1="234"
         y1="90"
         x2="171"
         y2="144"
         id="line199"
         style="fill:#000000;stroke:#000000" /><path
         d="m 166.418,147.927 c 1.47,-2.647 2.976,-6.306 3.395,-9.172 l 1.789,4.729 4.4,2.49 c -2.897,-0.022 -6.743,0.905 -9.584,1.953 z"
         id="path201"
         inkscape:connector-curvature="0"
         style="fill:#000000;stroke:#000000" /></g></g><g
     id="g203"
     transform="translate(-11.5,21.117544)"
     style="fill:#000000;stroke:#000000"><g
       id="g205"
       style="fill:#000000;stroke:#000000"><line
         x1="234"
         y1="90"
         x2="234"
         y2="144"
         id="line207"
         style="fill:#000000;stroke:#000000" /><path
         d="m 234,150.036 c -1.053,-2.84 -2.852,-6.364 -4.754,-8.547 l 4.754,1.72 4.756,-1.72 c -1.905,2.183 -3.703,5.707 -4.756,8.547 z"
         id="path209"
         inkscape:connector-curvature="0"
         style="fill:#000000;stroke:#000000" /></g></g><g
     id="g211"
     transform="translate(-11.5,21.117544)"
     style="fill:#000000;stroke:#000000"><g
       id="g213"
       style="fill:#000000;stroke:#000000"><line
         x1="162"
         y1="90"
         x2="225"
         y2="144"
         id="line215"
         style="fill:#000000;stroke:#000000" /><path
         d="m 229.582,147.927 c -2.842,-1.048 -6.687,-1.976 -9.583,-1.952 l 4.4,-2.491 1.788,-4.729 c 0.42,2.867 1.924,6.525 3.395,9.172 z"
         id="path217"
         inkscape:connector-curvature="0"
         style="fill:#000000;stroke:#000000" /></g></g><g
     id="g219"
     transform="translate(-11.5,21.117544)"
     style="fill:#000000;stroke:#000000"><g
       id="g221"
       style="fill:#000000;stroke:#000000"><line
         x1="162"
         y1="90"
         x2="162"
         y2="144"
         id="line223"
         style="fill:#000000;stroke:#000000" /><path
         d="m 162,150.036 c -1.054,-2.84 -2.852,-6.364 -4.755,-8.547 l 4.755,1.72 4.755,-1.72 c -1.903,2.183 -3.702,5.707 -4.755,8.547 z"
         id="path225"
         inkscape:connector-curvature="0"
         style="fill:#000000;stroke:#000000" /></g></g><g
     id="g227"
     transform="translate(-11.5,21.117544)"
     style="fill:#d35f5f;stroke:#d35f5f"><g
       id="g229"
       style="fill:#d35f5f;stroke:#d35f5f"><line
         x1="270"
         y1="90"
         x2="207"
         y2="144"
         id="line231"
         style="fill:#d35f5f;stroke:#d35f5f" /><path
         d="m 202.417,147.927 c 1.471,-2.647 2.976,-6.306 3.395,-9.172 l 1.789,4.729 4.4,2.49 c -2.896,-0.022 -6.742,0.905 -9.584,1.953 z"
         id="path233"
         inkscape:connector-curvature="0"
         style="fill:#d35f5f;stroke:#d35f5f" /></g></g><g
     id="g235"
     transform="translate(-11.5,21.117544)"
     style="fill:#000000;stroke:#000000"><g
       id="g237"
       style="fill:#000000;stroke:#000000"><line
         x1="270"
         y1="90"
         x2="270"
         y2="144"
         id="line239"
         style="fill:#000000;stroke:#000000" /><path
         d="m 270,150.036 c -1.054,-2.84 -2.852,-6.364 -4.755,-8.547 l 4.755,1.72 4.755,-1.72 c -1.904,2.183 -3.703,5.707 -4.755,8.547 z"
         id="path241"
         inkscape:connector-curvature="0"
         style="fill:#000000;stroke:#000000" /></g></g><g
     id="g243"
     transform="translate(-11.5,21.117544)"
     style="fill:#000000;stroke:#000000"><g
       id="g245"
       style="fill:#000000;stroke:#000000"><line
         x1="198"
         y1="90"
         x2="261"
         y2="144"
         id="line247"
         style="fill:#000000;stroke:#000000" /><path
         d="m 265.582,147.927 c -2.842,-1.048 -6.688,-1.976 -9.584,-1.952 l 4.4,-2.491 1.789,-4.729 c 0.419,2.867 1.924,6.525 3.395,9.172 z"
         id="path249"
         inkscape:connector-curvature="0"
         style="fill:#000000;stroke:#000000" /></g></g><g
     id="g251"
     transform="translate(-11.5,21.117544)"
     style="fill:#000000;stroke:#000000"><g
       id="g253"
       style="fill:#000000;stroke:#000000"><line
         x1="198"
         y1="90"
         x2="198"
         y2="144"
         id="line255"
         style="fill:#000000;stroke:#000000" /><path
         d="m 198,150.036 c -1.054,-2.84 -2.852,-6.364 -4.755,-8.547 l 4.755,1.72 4.755,-1.72 c -1.904,2.183 -3.703,5.707 -4.755,8.547 z"
         id="path257"
         inkscape:connector-curvature="0"
         style="fill:#000000;stroke:#000000" /></g></g><g
     id="g259"
     transform="translate(-11.5,164.96252)"
     style="fill:#d35f5f;stroke:#d35f5f"><g
       id="g261"
       style="fill:#d35f5f;stroke:#d35f5f"><line
         x1="198"
         y1="18"
         x2="198"
         y2="72"
         id="line263"
         style="fill:#d35f5f;stroke:#d35f5f" /><path
         d="m 198,78.035 c -1.054,-2.84 -2.852,-6.363 -4.755,-8.547 l 4.755,1.72 4.755,-1.72 c -1.904,2.184 -3.703,5.707 -4.755,8.547 z"
         id="path265"
         inkscape:connector-curvature="0"
         style="fill:#d35f5f;stroke:#d35f5f" /></g></g><g
     id="g267"
     transform="translate(-11.5,164.96252)"
     style="fill:#000000;stroke:#000000"><g
       id="g269"
       style="fill:#000000;stroke:#000000"><line
         x1="198"
         y1="18"
         x2="171"
         y2="72"
         id="line271"
         style="fill:#000000;stroke:#000000" /><path
         d="m 168.3,77.398 c 0.328,-3.011 0.295,-6.967 -0.43,-9.771 l 3.483,3.665 5.022,0.588 c -2.678,1.102 -5.862,3.449 -8.075,5.518 z"
         id="path273"
         inkscape:connector-curvature="0"
         style="fill:#000000;stroke:#000000" /></g></g><g
     id="g275"
     transform="translate(-11.5,164.96252)"
     style="fill:#000000;stroke:#000000"><g
       id="g277"
       style="fill:#000000;stroke:#000000"><line
         x1="162"
         y1="18"
         x2="189"
         y2="72"
         id="line279"
         style="fill:#000000;stroke:#000000" /><path
         d="m 191.698,77.398 c -2.212,-2.069 -5.396,-4.416 -8.075,-5.518 l 5.022,-0.588 3.483,-3.665 c -0.725,2.804 -0.757,6.76 -0.43,9.771 z"
         id="path281"
         inkscape:connector-curvature="0"
         style="fill:#000000;stroke:#000000" /></g></g><g
     id="g283"
     transform="translate(-11.5,164.96252)"
     style="fill:#000000;stroke:#000000"><g
       id="g285"
       style="fill:#000000;stroke:#000000"><line
         x1="162"
         y1="18"
         x2="162"
         y2="72"
         id="line287"
         style="fill:#000000;stroke:#000000" /><path
         d="m 162,78.035 c -1.054,-2.84 -2.852,-6.363 -4.755,-8.547 l 4.755,1.72 4.755,-1.72 c -1.904,2.184 -3.702,5.707 -4.755,8.547 z"
         id="path289"
         inkscape:connector-curvature="0"
         style="fill:#000000;stroke:#000000" /></g></g><g
     id="g291"
     transform="translate(-11.5,164.96252)"
     style="fill:#000000;stroke:#000000"><g
       id="g293"
       style="fill:#000000;stroke:#000000"><line
         x1="270"
         y1="18"
         x2="270"
         y2="72"
         id="line295"
         style="fill:#000000;stroke:#000000" /><path
         d="m 270,78.035 c -1.055,-2.84 -2.852,-6.363 -4.756,-8.547 l 4.756,1.72 4.754,-1.72 c -1.903,2.184 -3.702,5.707 -4.754,8.547 z"
         id="path297"
         inkscape:connector-curvature="0"
         style="fill:#000000;stroke:#000000" /></g></g><g
     id="g299"
     transform="translate(-11.5,164.96252)"
     style="fill:#000000;stroke:#000000"><g
       id="g301"
       style="fill:#000000;stroke:#000000"><line
         x1="270"
         y1="18"
         x2="243"
         y2="72"
         id="line303"
         style="fill:#000000;stroke:#000000" /><path
         d="m 240.3,77.398 c 0.327,-3.011 0.295,-6.967 -0.431,-9.771 l 3.483,3.665 5.021,0.588 c -2.676,1.102 -5.861,3.449 -8.073,5.518 z"
         id="path305"
         inkscape:connector-curvature="0"
         style="fill:#000000;stroke:#000000" /></g></g><g
     id="g307"
     transform="translate(-11.5,164.96252)"
     style="fill:#000000;stroke:#000000"><g
       id="g309"
       style="fill:#000000;stroke:#000000"><line
         x1="234"
         y1="18"
         x2="261"
         y2="72"
         id="line311"
         style="fill:#000000;stroke:#000000" /><path
         d="m 263.698,77.398 c -2.212,-2.069 -5.396,-4.416 -8.075,-5.518 l 5.022,-0.588 3.483,-3.665 c -0.725,2.804 -0.757,6.76 -0.43,9.771 z"
         id="path313"
         inkscape:connector-curvature="0"
         style="fill:#000000;stroke:#000000" /></g></g><g
     id="g315"
     transform="translate(-11.5,164.96252)"
     style="fill:#000000;stroke:#000000"><g
       id="g317"
       style="fill:#000000;stroke:#000000"><line
         x1="234"
         y1="18"
         x2="234"
         y2="72"
         id="line319"
         style="fill:#000000;stroke:#000000" /><path
         d="m 234,78.035 c -1.055,-2.84 -2.852,-6.363 -4.756,-8.547 l 4.756,1.72 4.754,-1.72 c -1.903,2.184 -3.702,5.707 -4.754,8.547 z"
         id="path321"
         inkscape:connector-curvature="0"
         style="fill:#000000;stroke:#000000" /></g></g><g
     id="g323"
     transform="translate(-11.5,164.96252)"
     style="fill:#000000;stroke:#000000"><g
       id="g325"
       style="fill:#000000;stroke:#000000"><line
         x1="54"
         y1="18"
         x2="54"
         y2="72"
         id="line327"
         style="fill:#000000;stroke:#000000" /><path
         d="m 54,78.035 c -1.054,-2.84 -2.852,-6.363 -4.755,-8.547 l 4.755,1.72 4.755,-1.72 C 56.852,71.672 55.053,75.195 54,78.035 Z"
         id="path329"
         inkscape:connector-curvature="0"
         style="fill:#000000;stroke:#000000" /></g></g><g
     id="g331"
     transform="translate(-11.5,164.96252)"
     style="fill:#000000;stroke:#000000"><g
       id="g333"
       style="fill:#000000;stroke:#000000"><line
         x1="54"
         y1="18"
         x2="27"
         y2="72"
         id="line335"
         style="fill:#000000;stroke:#000000" /><path
         d="m 24.301,77.398 c 0.328,-3.011 0.295,-6.967 -0.43,-9.771 l 3.483,3.665 5.022,0.588 c -2.679,1.102 -5.863,3.449 -8.075,5.518 z"
         id="path337"
         inkscape:connector-curvature="0"
         style="fill:#000000;stroke:#000000" /></g></g><g
     id="g339"
     transform="translate(-11.5,164.96252)"
     style="fill:#000000;stroke:#000000"><g
       id="g341"
       style="fill:#000000;stroke:#000000"><line
         x1="18"
         y1="18"
         x2="45"
         y2="72"
         id="line343"
         style="fill:#000000;stroke:#000000" /><path
         d="M 47.699,77.398 C 45.487,75.329 42.303,72.982 39.624,71.88 l 5.022,-0.588 3.483,-3.665 c -0.725,2.804 -0.758,6.76 -0.43,9.771 z"
         id="path345"
         inkscape:connector-curvature="0"
         style="fill:#000000;stroke:#000000" /></g></g><g
     id="g347"
     transform="translate(-11.5,164.96252)"
     style="fill:#000000;stroke:#000000"><g
       id="g349"
       style="fill:#000000;stroke:#000000"><line
         x1="18"
         y1="18"
         x2="18"
         y2="72"
         id="line351"
         style="fill:#000000;stroke:#000000" /><path
         d="m 18,78.035 c -1.054,-2.84 -2.852,-6.363 -4.755,-8.547 l 4.755,1.72 4.755,-1.72 C 20.852,71.672 19.053,75.195 18,78.035 Z"
         id="path353"
         inkscape:connector-curvature="0"
         style="fill:#000000;stroke:#000000" /></g></g><g
     id="g355"
     transform="translate(-11.5,164.96252)"
     style="fill:#000000;stroke:#000000"><g
       id="g357"
       style="fill:#000000;stroke:#000000"><line
         x1="126"
         y1="18"
         x2="126"
         y2="72"
         id="line359"
         style="fill:#000000;stroke:#000000" /><path
         d="m 126,78.035 c -1.054,-2.84 -2.852,-6.363 -4.755,-8.547 l 4.755,1.72 4.755,-1.72 c -1.904,2.184 -3.702,5.707 -4.755,8.547 z"
         id="path361"
         inkscape:connector-curvature="0"
         style="fill:#000000;stroke:#000000" /></g></g><g
     id="g363"
     transform="translate(-11.5,164.96252)"
     style="fill:#000000;stroke:#000000"><g
       id="g365"
       style="fill:#000000;stroke:#000000"><line
         x1="126"
         y1="18"
         x2="99"
         y2="72"
         id="line367"
         style="fill:#000000;stroke:#000000" /><path
         d="m 96.3,77.398 c 0.328,-3.011 0.295,-6.967 -0.43,-9.771 l 3.483,3.665 5.022,0.588 c -2.678,1.102 -5.862,3.449 -8.075,5.518 z"
         id="path369"
         inkscape:connector-curvature="0"
         style="fill:#000000;stroke:#000000" /></g></g><g
     id="g371"
     transform="translate(-11.5,164.96252)"
     style="fill:#000000;stroke:#000000"><g
       id="g373"
       style="fill:#000000;stroke:#000000"><line
         x1="90"
         y1="18"
         x2="117"
         y2="72"
         id="line375"
         style="fill:#000000;stroke:#000000" /><path
         d="m 119.699,77.398 c -2.213,-2.069 -5.396,-4.416 -8.075,-5.518 l 5.021,-0.588 3.484,-3.665 c -0.726,2.804 -0.758,6.76 -0.43,9.771 z"
         id="path377"
         inkscape:connector-curvature="0"
         style="fill:#000000;stroke:#000000" /></g></g><g
     id="g379"
     transform="translate(-11.5,164.96252)"
     style="fill:#000000;stroke:#000000"><g
       id="g381"
       style="fill:#000000;stroke:#000000"><line
         x1="90"
         y1="18"
         x2="90"
         y2="72"
         id="line383"
         style="fill:#000000;stroke:#000000" /><path
         d="m 90,78.035 c -1.054,-2.84 -2.852,-6.363 -4.755,-8.547 l 4.755,1.72 4.755,-1.72 C 92.851,71.672 91.053,75.195 90,78.035 Z"
         id="path385"
         inkscape:connector-curvature="0"
         style="fill:#000000;stroke:#000000" /></g></g><circle
     cx="6.5"
     cy="-248.77391"
     r="6"
     id="circle387"
     transform="scale(1,-1)"
     style="fill:#87cdde;stroke:#000000" /><circle
     cx="42.5"
     cy="-248.77391"
     r="6"
     id="circle389"
     transform="scale(1,-1)"
     style="fill:#87cdde;stroke:#000000" /><circle
     cx="78.5"
     cy="-248.77391"
     r="6"
     id="circle391"
     transform="scale(1,-1)"
     style="fill:#87cdde;stroke:#000000" /><circle
     cx="114.499"
     cy="-248.7729"
     r="6"
     id="circle393"
     transform="scale(1,-1)"
     style="fill:#87cdde;stroke:#000000" /><circle
     cx="150.5"
     cy="-248.77391"
     r="6"
     id="circle395"
     transform="scale(1,-1)"
     style="fill:#87cdde;stroke:#000000" /><circle
     cx="186.49899"
     cy="-248.7729"
     r="6"
     id="circle397"
     transform="scale(1,-1)"
     style="fill:#d35f5f;stroke:#d35f5f" /><circle
     cx="222.5"
     cy="-248.7729"
     r="6"
     id="circle399"
     transform="scale(1,-1)"
     style="fill:#87cdde;stroke:#000000" /><circle
     cx="258.49899"
     cy="-248.7729"
     r="6"
     id="circle401"
     transform="scale(1,-1)"
     style="fill:#87cdde;stroke:#000000" /><circle
     cx="6.5"
     cy="-176.77391"
     r="6"
     id="circle403"
     transform="scale(1,-1)"
     style="fill:#87cdde;stroke:#000000" /><circle
     cx="42.5"
     cy="-176.77391"
     r="6"
     id="circle405"
     transform="scale(1,-1)"
     style="fill:#87cdde;stroke:#000000" /><circle
     cx="78.5"
     cy="-176.77391"
     r="6"
     id="circle407"
     transform="scale(1,-1)"
     style="fill:#87cdde;stroke:#000000" /><circle
     cx="114.499"
     cy="-176.77391"
     r="6"
     id="circle409"
     transform="scale(1,-1)"
     style="fill:#87cdde;stroke:#000000" /><circle
     cx="150.5"
     cy="-176.77391"
     r="6"
     id="circle411"
     transform="scale(1,-1)"
     style="fill:#87cdde;stroke:#000000" /><circle
     cx="186.49899"
     cy="-176.77391"
     r="6"
     id="circle413"
     transform="scale(1,-1)"
     style="fill:#d35f5f;stroke:#d35f5f" /><circle
     cx="222.5"
     cy="-176.77391"
     r="6"
     id="circle415"
     transform="scale(1,-1)"
     style="fill:#87cdde;stroke:#000000" /><circle
     cx="258.49899"
     cy="-176.7729"
     r="6"
     id="circle417"
     transform="scale(1,-1)"
     style="fill:#87cdde;stroke:#000000" /><circle
     cx="6.5"
     cy="-104.77391"
     r="6"
     id="circle419"
     transform="scale(1,-1)"
     style="fill:#87cdde;stroke:#000000" /><circle
     cx="42.5"
     cy="-104.77391"
     r="6"
     id="circle421"
     transform="scale(1,-1)"
     style="fill:#87cdde;stroke:#000000" /><circle
     cx="78.5"
     cy="-104.77391"
     r="6"
     id="circle423"
     transform="scale(1,-1)"
     style="fill:#87cdde;stroke:#000000" /><circle
     cx="114.499"
     cy="-104.77391"
     r="6"
     id="circle425"
     transform="scale(1,-1)"
     style="fill:#87cdde;stroke:#000000" /><circle
     cx="150.5"
     cy="-104.77391"
     r="6"
     id="circle427"
     transform="scale(1,-1)"
     style="fill:#87cdde;stroke:#000000" /><circle
     cx="186.49899"
     cy="-104.77391"
     r="6"
     id="circle429"
     transform="scale(1,-1)"
     style="fill:#87cdde;stroke:#000000" /><circle
     cx="222.5"
     cy="-104.77391"
     r="6"
     id="circle431"
     transform="scale(1,-1)"
     style="fill:#87cdde;stroke:#000000" /><circle
     cx="258.49899"
     cy="-104.7729"
     r="6"
     id="circle433"
     transform="scale(1,-1)"
     style="fill:#d35f5f;stroke:#d35f5f" /><circle
     cx="6.5"
     cy="-32.773914"
     r="6"
     id="circle435"
     transform="scale(1,-1)"
     style="fill:#87cdde;stroke:#000000" /><circle
     cx="42.5"
     cy="-32.773914"
     r="6"
     id="circle437"
     transform="scale(1,-1)"
     style="fill:#87cdde;stroke:#000000" /><circle
     cx="78.5"
     cy="-32.773914"
     r="6"
     id="circle439"
     transform="scale(1,-1)"
     style="fill:#87cdde;stroke:#000000" /><circle
     cx="114.499"
     cy="-32.773914"
     r="6"
     id="circle441"
     transform="scale(1,-1)"
     style="fill:#d35f5f;stroke:#d35f5f" /><circle
     cx="150.5"
     cy="-32.773914"
     r="6"
     id="circle443"
     transform="scale(1,-1)"
     style="fill:#87cdde;stroke:#000000" /><circle
     cx="186.49899"
     cy="-32.773914"
     r="6"
     id="circle445"
     transform="scale(1,-1)"
     style="fill:#87cdde;stroke:#000000" /><circle
     cx="222.5"
     cy="-32.773914"
     r="6"
     id="circle447"
     transform="scale(1,-1)"
     style="fill:#87cdde;stroke:#000000" /><circle
     cx="258.49899"
     cy="-32.772907"
     r="6"
     id="circle449"
     transform="scale(1,-1)"
     style="fill:#87cdde;stroke:#000000" /><text
     xml:space="preserve"
     style="font-style:normal;font-weight:normal;font-size:11.19199753px;line-height:125%;font-family:Sans;letter-spacing:0px;word-spacing:0px;fill:#000000;fill-opacity:1;stroke:none;stroke-width:1px;stroke-linecap:butt;stroke-linejoin:miter;stroke-opacity:1"
     x="115.78692"
     y="7.9895997"
     id="text3783"
     sodipodi:linespacing="125%"><tspan
       sodipodi:role="line"
       id="tspan3785"
       x="115.78692"
       y="7.9895997">Inputs</tspan></text>
<text
     xml:space="preserve"
     style="font-style:normal;font-weight:normal;font-size:11.19199753px;line-height:125%;font-family:Sans;letter-spacing:0px;word-spacing:0px;fill:#000000;fill-opacity:1;stroke:none;stroke-width:1px;stroke-linecap:butt;stroke-linejoin:miter;stroke-opacity:1"
     x="115.36647"
     y="275.00812"
     id="text3783-2"
     sodipodi:linespacing="125%"><tspan
       sodipodi:role="line"
       id="tspan3785-0"
       x="115.36647"
       y="275.00812">Outputs</tspan></text>
<text
     xml:space="preserve"
     style="color:#000000;font-style:normal;font-variant:normal;font-weight:normal;font-stretch:normal;font-size:11.27622032px;line-height:125%;font-family:Sans;text-indent:0;text-align:start;text-decoration:none;text-decoration-line:none;text-decoration-style:solid;text-decoration-color:#000000;letter-spacing:0px;word-spacing:0px;text-transform:none;direction:ltr;block-progression:tb;writing-mode:lr-tb;baseline-shift:baseline;text-anchor:start;white-space:normal;clip-rule:nonzero;display:inline;overflow:visible;visibility:visible;opacity:1;isolation:auto;mix-blend-mode:normal;color-interpolation:sRGB;color-interpolation-filters:linearRGB;solid-color:#000000;solid-opacity:1;fill:#000000;fill-opacity:1;fill-rule:nonzero;stroke:none;stroke-width:1px;stroke-linecap:butt;stroke-linejoin:miter;stroke-miterlimit:4;stroke-dasharray:none;stroke-dashoffset:0;stroke-opacity:1;color-rendering:auto;image-rendering:auto;shape-rendering:auto;text-rendering:auto;enable-background:accumulate"
     x="0.37286758"
     y="22.10655"
     id="text3805"
     sodipodi:linespacing="125%"><tspan
       sodipodi:role="line"
       id="tspan3807"
       x="0.37286758"
       y="22.10655">000</tspan></text>
<text
     xml:space="preserve"
     style="font-style:normal;font-weight:normal;font-size:11.27622032px;line-height:125%;font-family:Sans;letter-spacing:0px;word-spacing:0px;fill:#000000;fill-opacity:1;stroke:none;stroke-width:1px;stroke-linecap:butt;stroke-linejoin:miter;stroke-opacity:1"
     x="36.372868"
     y="22.106548"
     id="text3805-3"
     sodipodi:linespacing="125%"><tspan
       sodipodi:role="line"
       id="tspan3807-1"
       x="36.372868"
       y="22.106548">001</tspan></text>
<text
     xml:space="preserve"
     style="font-style:normal;font-weight:normal;font-size:11.27622032px;line-height:125%;font-family:Sans;letter-spacing:0px;word-spacing:0px;fill:#000000;fill-opacity:1;stroke:none;stroke-width:1px;stroke-linecap:butt;stroke-linejoin:miter;stroke-opacity:1"
     x="72.372864"
     y="22.106548"
     id="text3805-3-5"
     sodipodi:linespacing="125%"><tspan
       sodipodi:role="line"
       id="tspan3807-1-1"
       x="72.372864"
       y="22.106548">010</tspan></text>
<text
     xml:space="preserve"
     style="font-style:normal;font-weight:normal;font-size:11.27622032px;line-height:125%;font-family:Sans;letter-spacing:0px;word-spacing:0px;fill:#d35f5f;fill-opacity:1;stroke:none;stroke-width:1px;stroke-linecap:butt;stroke-linejoin:miter;stroke-opacity:1;"
     x="108.37286"
     y="22.106548"
     id="text3805-3-56"
     sodipodi:linespacing="125%"><tspan
       sodipodi:role="line"
       id="tspan3807-1-4"
       x="108.37286"
       y="22.106548">011</tspan></text>
<text
     xml:space="preserve"
     style="font-style:normal;font-weight:normal;font-size:11.27622032px;line-height:125%;font-family:Sans;letter-spacing:0px;word-spacing:0px;fill:#000000;fill-opacity:1;stroke:none;stroke-width:1px;stroke-linecap:butt;stroke-linejoin:miter;stroke-opacity:1"
     x="142.37286"
     y="22.106548"
     id="text3805-3-2"
     sodipodi:linespacing="125%"><tspan
       sodipodi:role="line"
       id="tspan3807-1-5"
       x="142.37286"
       y="22.106548">100</tspan></text>
<text
     xml:space="preserve"
     style="font-style:normal;font-weight:normal;font-size:11.27622032px;line-height:125%;font-family:Sans;letter-spacing:0px;word-spacing:0px;fill:#000000;fill-opacity:1;stroke:none;stroke-width:1px;stroke-linecap:butt;stroke-linejoin:miter;stroke-opacity:1"
     x="180.37286"
     y="22.106548"
     id="text3805-3-4"
     sodipodi:linespacing="125%"><tspan
       sodipodi:role="line"
       id="tspan3807-1-2"
       x="180.37286"
       y="22.106548">101</tspan></text>
<text
     xml:space="preserve"
     style="font-style:normal;font-weight:normal;font-size:11.27622032px;line-height:125%;font-family:Sans;letter-spacing:0px;word-spacing:0px;fill:#000000;fill-opacity:1;stroke:none;stroke-width:1px;stroke-linecap:butt;stroke-linejoin:miter;stroke-opacity:1"
     x="216.37286"
     y="22.106548"
     id="text3805-3-48"
     sodipodi:linespacing="125%"><tspan
       sodipodi:role="line"
       id="tspan3807-1-7"
       x="216.37286"
       y="22.106548">110</tspan></text>
<text
     xml:space="preserve"
     style="font-style:normal;font-weight:normal;font-size:11.27622032px;line-height:125%;font-family:Sans;letter-spacing:0px;word-spacing:0px;fill:#000000;fill-opacity:1;stroke:none;stroke-width:1px;stroke-linecap:butt;stroke-linejoin:miter;stroke-opacity:1"
     x="246.37286"
     y="22.106548"
     id="text3805-3-20"
     sodipodi:linespacing="125%"><tspan
       sodipodi:role="line"
       id="tspan3807-1-57"
       x="246.37286"
       y="22.106548">111</tspan></text>
<text
     xml:space="preserve"
     style="color:#000000;font-style:normal;font-variant:normal;font-weight:normal;font-stretch:normal;font-size:11.27622032px;line-height:125%;font-family:Sans;text-indent:0;text-align:start;text-decoration:none;text-decoration-line:none;text-decoration-style:solid;text-decoration-color:#000000;letter-spacing:0px;word-spacing:0px;text-transform:none;direction:ltr;block-progression:tb;writing-mode:lr-tb;baseline-shift:baseline;text-anchor:start;white-space:normal;clip-rule:nonzero;display:inline;overflow:visible;visibility:visible;opacity:1;isolation:auto;mix-blend-mode:normal;color-interpolation:sRGB;color-interpolation-filters:linearRGB;solid-color:#000000;solid-opacity:1;fill:#000000;fill-opacity:1;fill-rule:nonzero;stroke:none;stroke-width:1px;stroke-linecap:butt;stroke-linejoin:miter;stroke-miterlimit:4;stroke-dasharray:none;stroke-dashoffset:0;stroke-opacity:1;color-rendering:auto;image-rendering:auto;shape-rendering:auto;text-rendering:auto;enable-background:accumulate"
     x="0.37286758"
     y="265.0769"
     id="text3805-1"
     sodipodi:linespacing="125%"><tspan
       sodipodi:role="line"
       id="tspan3807-0"
       x="0.37286758"
       y="265.0769">000</tspan></text>
<text
     xml:space="preserve"
     style="font-style:normal;font-weight:normal;font-size:11.27622032px;line-height:125%;font-family:Sans;letter-spacing:0px;word-spacing:0px;fill:#000000;fill-opacity:1;stroke:none;stroke-width:1px;stroke-linecap:butt;stroke-linejoin:miter;stroke-opacity:1"
     x="36.372868"
     y="265.0769"
     id="text3805-3-49"
     sodipodi:linespacing="125%"><tspan
       sodipodi:role="line"
       id="tspan3807-1-8"
       x="36.372868"
       y="265.0769">001</tspan></text>
<text
     xml:space="preserve"
     style="font-style:normal;font-weight:normal;font-size:11.27622032px;line-height:125%;font-family:Sans;letter-spacing:0px;word-spacing:0px;fill:#000000;fill-opacity:1;stroke:none;stroke-width:1px;stroke-linecap:butt;stroke-linejoin:miter;stroke-opacity:1"
     x="72.372864"
     y="265.0769"
     id="text3805-3-5-1"
     sodipodi:linespacing="125%"><tspan
       sodipodi:role="line"
       id="tspan3807-1-1-3"
       x="72.372864"
       y="265.0769">010</tspan></text>
<text
     xml:space="preserve"
     style="font-style:normal;font-weight:normal;font-size:11.27622032px;line-height:125%;font-family:Sans;letter-spacing:0px;word-spacing:0px;fill:#000000;fill-opacity:1;stroke:none;stroke-width:1px;stroke-linecap:butt;stroke-linejoin:miter;stroke-opacity:1"
     x="108.37286"
     y="265.0769"
     id="text3805-3-56-0"
     sodipodi:linespacing="125%"><tspan
       sodipodi:role="line"
       id="tspan3807-1-4-3"
       x="108.37286"
       y="265.0769">011</tspan></text>
<text
     xml:space="preserve"
     style="font-style:normal;font-weight:normal;font-size:11.27622032px;line-height:125%;font-family:Sans;letter-spacing:0px;word-spacing:0px;fill:#000000;fill-opacity:1;stroke:none;stroke-width:1px;stroke-linecap:butt;stroke-linejoin:miter;stroke-opacity:1"
     x="142.37286"
     y="265.0769"
     id="text3805-3-2-0"
     sodipodi:linespacing="125%"><tspan
       sodipodi:role="line"
       id="tspan3807-1-5-3"
       x="142.37286"
       y="265.0769">100</tspan></text>
<text
     xml:space="preserve"
     style="font-style:normal;font-weight:normal;font-size:11.27622032px;line-height:125%;font-family:Sans;letter-spacing:0px;word-spacing:0px;fill:#d35f5f;fill-opacity:1;stroke:none;stroke-width:1px;stroke-linecap:butt;stroke-linejoin:miter;stroke-opacity:1;"
     x="180.37286"
     y="265.0769"
     id="text3805-3-4-6"
     sodipodi:linespacing="125%"><tspan
       sodipodi:role="line"
       id="tspan3807-1-2-9"
       x="180.37286"
       y="265.0769">101</tspan></text>
<text
     xml:space="preserve"
     style="font-style:normal;font-weight:normal;font-size:11.27622032px;line-height:125%;font-family:Sans;letter-spacing:0px;word-spacing:0px;fill:#000000;fill-opacity:1;stroke:none;stroke-width:1px;stroke-linecap:butt;stroke-linejoin:miter;stroke-opacity:1"
     x="216.37286"
     y="265.0769"
     id="text3805-3-48-6"
     sodipodi:linespacing="125%"><tspan
       sodipodi:role="line"
       id="tspan3807-1-7-8"
       x="216.37286"
       y="265.0769">110</tspan></text>
<text
     xml:space="preserve"
     style="font-style:normal;font-weight:normal;font-size:11.27622032px;line-height:125%;font-family:Sans;letter-spacing:0px;word-spacing:0px;fill:#000000;fill-opacity:1;stroke:none;stroke-width:1px;stroke-linecap:butt;stroke-linejoin:miter;stroke-opacity:1"
     x="246.37286"
     y="265.0769"
     id="text3805-3-20-4"
     sodipodi:linespacing="125%"><tspan
       sodipodi:role="line"
       id="tspan3807-1-57-9"
       x="246.37286"
       y="265.0769">111</tspan></text>
</svg>